<?xml version="1.0" encoding="utf-8"?>
<!-- Generator: Adobe Illustrator 27.5.0, SVG Export Plug-In . SVG Version: 6.00 Build 0)  -->
<svg version="1.1" xmlns="http://www.w3.org/2000/svg" xmlns:xlink="http://www.w3.org/1999/xlink" x="0px" y="0px"
	 viewBox="0 0 500 500" style="enable-background:new 0 0 500 500;" xml:space="preserve">
<g id="BACKGROUND">
	<rect style="fill:#F7F7F7;" width="500" height="500"/>
</g>
<g id="OBJECTS">
	<g>
		<g>
			<path style="fill:#AD599D;" d="M130.833,436.066H87.067c-6.155,0-11.145-4.99-11.145-11.145V146.623
				c0-6.155,4.99-11.145,11.145-11.145h43.765V436.066z"/>
			<path style="fill:#DB7FC6;" d="M314.366,436.066H128.334c-5.076,0-9.191-4.115-9.191-9.191V144.669
				c0-5.076,4.115-9.191,9.191-9.191h186.032c5.076,0,9.19,4.115,9.19,9.191v282.206
				C323.556,431.951,319.441,436.066,314.366,436.066z"/>
		</g>
		<g>
			<path d="M137.663,436.066h9.943V135.478h-9.943c-3.772,0-6.831,3.058-6.831,6.831v286.926
				C130.833,433.008,133.891,436.066,137.663,436.066z"/>
			<path style="fill:#202EB2;" d="M187.833,436.066h-44.069c-4.211,0-7.624-3.413-7.624-7.624V143.103
				c0-4.211,3.413-7.624,7.624-7.624h44.069V436.066z"/>
			<path style="fill:#608EE5;" d="M347.787,436.066H168.996c-3.871,0-7.01-3.138-7.01-7.01V142.488c0-3.871,3.138-7.01,7.01-7.01
				h178.791c4.772,0,8.641,3.868,8.641,8.641v283.306C356.428,432.197,352.559,436.066,347.787,436.066z"/>
			<text transform="matrix(1 0 0 1 201.8057 221.3356)" style="fill:#FFFFFF; font-family:'Poppins-Bold'; font-size:72.7582px;">a-z</text>
			<text transform="matrix(1 0 0 1 198.8584 253.6276)" style="fill:#FFFFFF; font-family:'Poppins-Bold'; font-size:26.7008px;">glossary</text>
			
				<line style="fill:none;stroke:#000000;stroke-width:0.5;stroke-linecap:round;stroke-linejoin:round;stroke-miterlimit:10;" x1="181.764" y1="135.478" x2="181.764" y2="436.066"/>
			
				<line style="fill:none;stroke:#000000;stroke-width:0.5;stroke-linecap:round;stroke-linejoin:round;stroke-miterlimit:10;" x1="175.411" y1="135.478" x2="175.411" y2="436.066"/>
		</g>
		<g>
			<path style="fill:#FA96C3;" d="M430.541,436.066H304.77v-54.649h125.771c13.348,0,24.169,10.821,24.169,24.168v6.312
				C454.71,425.245,443.889,436.066,430.541,436.066z"/>
			<g>
				<path style="fill:#FFFFFF;" d="M308.682,431.066v-44.65h124.652c9.63,0,17.465,10.015,17.465,22.324
					c0,12.31-7.835,22.325-17.465,22.325H308.682z"/>
			</g>
			<path style="fill:#CF417F;" d="M304.77,436.066H149.063c12.248-18.216,12.248-36.433,0-54.649H304.77
				C318.924,399.633,318.924,417.849,304.77,436.066z"/>
			<path style="fill:#F5F5F5;" d="M308.682,431.066H151.719c8.628-14.883,8.628-29.766,0-44.649l156.963,0
				C318.052,401.3,318.052,416.183,308.682,431.066z"/>
			<polygon style="fill:#6D52DD;" points="356.777,426.295 347.656,419.067 338.535,426.295 338.535,402.561 356.777,402.561 			"/>
			<polygon style="fill:#2640CD;" points="407.113,418.351 397.826,411.3 388.539,418.351 388.539,393.93 407.113,393.93 			"/>
			
				<line style="fill:none;stroke:#000000;stroke-width:0.5;stroke-linecap:round;stroke-linejoin:round;stroke-miterlimit:10;" x1="320.995" y1="402.561" x2="378.708" y2="402.561"/>
			
				<line style="fill:none;stroke:#000000;stroke-width:0.5;stroke-linecap:round;stroke-linejoin:round;stroke-miterlimit:10;" x1="381.341" y1="393.93" x2="438.084" y2="393.93"/>
			<path style="fill:none;stroke:#000000;stroke-width:0.5;stroke-linecap:round;stroke-linejoin:round;stroke-miterlimit:10;" d="
				M186.877,395.794h111.108 M163.744,404.425h74.499 M198.31,413.057h99.676 M177.216,421.688h120.77"/>
		</g>
		<g>
			<g>
				<path d="M414.87,231.772c-1.104,0-2-0.896-2-2v-16.953c0-3.678-1.972-6.84-5.274-8.458c-3.301-1.618-7.01-1.24-9.916,1.014
					l-21.84,16.928c-0.874,0.675-2.129,0.517-2.807-0.356c-0.677-0.873-0.517-2.13,0.355-2.807l21.84-16.928
					c4.079-3.161,9.493-3.715,14.128-1.443c4.635,2.271,7.514,6.889,7.514,12.05v16.953
					C416.87,230.876,415.975,231.772,414.87,231.772z"/>
			</g>
			<g>
				<rect x="411.544" y="229.772" style="fill:#F6C94C;" width="6.653" height="206.294"/>
				<path style="fill:#F6C94C;" d="M458.608,436.066h-87.475c-1.381,0-2.5-1.119-2.5-2.5l0,0c0-1.381,1.119-2.5,2.5-2.5h87.475
					c1.381,0,2.5,1.119,2.5,2.5l0,0C461.108,434.947,459.989,436.066,458.608,436.066z"/>
			</g>
			<path style="fill:#F6C94C;" d="M370.888,249.772l-22.732-24.146c-2.553-2.712-1.865-7.104,1.396-8.905l19.119-10.559
				c5.096-2.814,11.451-1.818,15.441,2.42l5.956,6.327c3.99,4.239,4.602,10.642,1.485,15.559l-11.692,18.448
				C377.866,252.061,373.441,252.484,370.888,249.772z"/>
		</g>
		<g>
			<rect x="174.039" y="274.649" style="fill:#DB953D;" width="23.778" height="106.777"/>
			<rect x="197.817" y="274.649" style="fill:#EAAC3D;" width="79.951" height="106.777"/>
		</g>
		<g>
			<rect x="205.66" y="274.649" style="fill:#4A35A0;" width="23.778" height="106.777"/>
			
				<rect x="202.794" y="274.649" transform="matrix(-1 -1.224647e-16 1.224647e-16 -1 408.4542 656.076)" width="2.866" height="106.777"/>
			<path style="fill:#6D50CD;" d="M302.184,381.427h-72.746V274.649h72.746c3.979,0,7.205,3.226,7.205,7.205v92.367
				C309.389,378.201,306.163,381.427,302.184,381.427z"/>
			<rect x="245.118" y="290.96" style="fill:#4A35A0;" width="55.527" height="6.76"/>
			<rect x="245.118" y="304.659" style="fill:#4A35A0;" width="55.527" height="6.76"/>
		</g>
		<g>
			<g>
				<g>
					<path style="fill:#0C1591;" d="M281.649,381.408c0,0,36.518-1.163,59.193-7.646c15.219-4.351,12.931-31.313-1.934-28.851
						c-29.485,4.884-57.259,8.318-57.259,8.318c-0.742,0-1.343,0.678-1.343,1.515v25.148
						C280.306,380.729,280.907,381.408,281.649,381.408z"/>
				</g>
				<path style="fill:#0C1591;" d="M243.016,348.144c-2.791,6.195-6.177,33.268,23.121,33.268c36.67,0,52.957,0.591,61.453-5.699
					c7.7-5.7,14.135-33.024-33.393-26.596C246.669,355.544,243.016,348.144,243.016,348.144z"/>
				<g>
					<path style="fill:#DF9B99;" d="M342.367,342.936c-1.288-0.776-0.868-1.146-2.136-1.955c-1.823-1.163-3.593-2.404-5.399-3.593
						c-3.242-2.134-8.036-4.465-11.475-6.269c-7.848-0.031-13.251-0.031-18.109-0.031v17.973c8.563-0.06,13.496,0.034,21.386-0.112
						c0.567-0.01,1.164-0.014,1.661,0.259c0.987,0.542,3.946,2.224,5.359,3.076c2.003,1.207,3.324-0.09,3.324-0.947
						c2.087,2.296,5.75-0.159,4.062-2.222c1.138,1.506,2.595,1.305,3.548,0.736c1.613-0.962,0.467-3.597-0.442-4.933
						C343.853,344.491,342.62,343.351,342.367,342.936z"/>
					<path style="fill:#DF9B99;" d="M319.094,349.032c2.5,0.085,5.847-0.209,7.708,1.989c1.478,1.745,3.849,2.636,5.013,0.927
						c1.077-1.581-2.114-4.903-3.06-7.243c-1.734-4.287,2.159-6.414,6.051-5.441s8.712,8.276,11.722,5.8
						c2.467-2.029-2.253-8.116-11.036-11.725c-4.758-1.955-12.358-2.22-12.358-2.22"/>
					
						<path style="fill:none;stroke:#000000;stroke-width:0.5;stroke-linecap:round;stroke-linejoin:round;stroke-miterlimit:10;" d="
						M326.803,351.02c1.478,1.745,3.849,2.636,5.013,0.927c1.077-1.581-2.114-4.903-3.06-7.243
						c-1.734-4.287,2.159-6.414,6.051-5.441c3.115,0.779,6.714,5.486,9.697,6.236"/>
					
						<path style="fill:none;stroke:#000000;stroke-width:0.5;stroke-linecap:round;stroke-linejoin:round;stroke-miterlimit:10;" d="
						M328.97,340.723c6.38,1.533,9.459,4.712,12.07,8.393"/>
					
						<path style="fill:none;stroke:#000000;stroke-width:0.5;stroke-linecap:round;stroke-linejoin:round;stroke-miterlimit:10;" d="
						M329.784,346.443c3.231,1.245,3.39,1.637,7.193,4.896"/>
				</g>
				<path style="fill:#6BCBFF;" d="M297.78,308.293c0.754,5.627,2.864,20.455,2.864,20.455l15.605,0.064l1.93,21.71
					c0,0-14.411-0.243-30.283-0.717c-10.916-0.326-12.718-9.167-11.302-16.787c1.886-10.149,3.287-40.451,3.287-40.451
					S295.698,292.756,297.78,308.293z"/>
				
					<line style="fill:none;stroke:#000000;stroke-width:0.5;stroke-linecap:round;stroke-linejoin:round;stroke-miterlimit:10;" x1="313.022" y1="329.799" x2="314.915" y2="347.544"/>
				<path id="XMLID_00000172442174588832093540000006620974237315055283_" style="fill:#6BCBFF;" d="M247.416,306.816l-0.193,46.422
					h47.087c0,0-1.591-28.253-1.591-48.569c0-6.214-5.038-10.061-9.641-11.372c-7.438-2.12-18.844-2.078-28.941,0.64
					C247.298,295.777,247.499,303.187,247.416,306.816z"/>
				
					<path id="XMLID_00000045579475652943478760000010179263237886856074_" style="fill:none;stroke:#000000;stroke-width:0.5;stroke-linecap:round;stroke-linejoin:round;stroke-miterlimit:10;" d="
					M291.488,353.238c0,0-1.906-29.558-2.525-46.006"/>
				<g>
					<path style="fill:#DF9B99;" d="M313.968,343.036c1.79-1.89,0-13.006-14.608-13.006c-4.047,0-21.097,0.318-25.107-0.232v17.973
						c8.563-0.06,13.496,0.034,21.387-0.112c0.567-0.01,1.135,0.046,1.661,0.259c2.401,0.971,3.659,4.028,7.267,4.028
						c1.731,0,2.446-1.327,1.954-2.144c0.671,1.074,3.462,2.13,4.113-0.224c0.146-0.529,0.047-1.596-0.192-2.097
						c0.024,0.02,0.047,0.042,0.071,0.061c0.879,0.678,1.853,1.034,2.792,0.442c1.069-0.674,0.938-2.485-0.044-4.554
						C313.504,343.396,313.741,343.276,313.968,343.036z"/>
					
						<path style="fill:none;stroke:#000000;stroke-width:0.5;stroke-linecap:round;stroke-linejoin:round;stroke-miterlimit:10;" d="
						M294.367,341.171c5.626-0.413,11.118,4.216,12.154,8.633"/>
					<g>
						<g>
							<path d="M297.965,333.16c4.563,0.735,9.166,2.142,12.33,5.719c1.196,1.352,2.093,2.933,2.726,4.62
								c0.112,0.298,0.595,0.169,0.482-0.133c-1.048-2.796-2.801-5.216-5.22-6.98c-2.039-1.486-4.42-2.439-6.856-3.049
								c-1.098-0.275-2.212-0.479-3.329-0.659C297.783,332.627,297.648,333.109,297.965,333.16L297.965,333.16z"/>
						</g>
					</g>
					<g>
						<g>
							<path d="M295.714,337.53c1.882-0.072,3.85,0.533,5.584,1.203c2.494,0.964,4.872,2.418,6.634,4.453
								c1.11,1.282,1.911,2.785,2.341,4.425c0.082,0.311,0.564,0.179,0.482-0.133c-1.445-5.504-6.861-8.883-12.127-10.09
								c-0.947-0.217-1.938-0.394-2.914-0.357C295.393,337.043,295.392,337.543,295.714,337.53L295.714,337.53z"/>
						</g>
					</g>
				</g>
				<path style="fill:#6BCBFF;" d="M264.531,307.232c-1.013,8.734-2.303,21.108-2.303,21.108l26.548,0.148l1.704,22.445
					c0,0-22.336,0.733-39.996,0c-10.932-0.454-13.143-10.048-12.22-17.817c1.329-11.195,3.39-34.437,14.942-38.86
					C259.93,291.68,265.989,294.651,264.531,307.232z"/>
				<path style="fill:none;stroke:#000000;stroke-width:0.5;stroke-linecap:round;stroke-linejoin:round;stroke-miterlimit:10;" d="
					M260.665,307.232c-1.012,8.734-2.303,21.108-2.303,21.108l30.414,0.148l1.704,22.445c0,0-37.357,0.795-43.064-0.462"/>
				<path style="fill:#FFFFFF;" d="M266.729,291.916l10.738,21.781l3.571-20.904C275.511,291.816,270.856,291.628,266.729,291.916z"
					/>
				
					<line style="fill:none;stroke:#000000;stroke-width:0.5;stroke-linecap:round;stroke-linejoin:round;stroke-miterlimit:10;" x1="262.228" y1="328.339" x2="253.701" y2="328.339"/>
				<g>
					<g>
						<path style="fill:#DF9B99;" d="M287.209,276.843c-0.342,9.367,0.28,16.133-7.668,14.994l-0.98,3.608
							c0,0-0.358,3.219-5.002,1.999c-5.128-1.348-4.064-4.725-4.064-4.725l0.95-3.616c0,0-2.852-10.976,1.337-14.839
							C275.257,271.06,287.386,271.985,287.209,276.843z"/>
						<path style="fill:#242E3B;" d="M291.18,276.299c-0.42-0.526-1.299-0.648-1.784-0.181c0.981-0.518,1.34-1.942,0.72-2.863
							c-0.527-0.784-1.656-1.043-2.506-0.664c-0.009-0.016-0.021-0.031-0.03-0.047c0.31-0.24,0.609-0.495,0.83-0.817
							c0.313-0.456,0.46-1.065,0.234-1.57c-0.265-0.593-0.975-0.881-1.624-0.849s-1.253,0.32-1.838,0.603
							c0.74-0.251,0.835-1.367,0.326-1.96c-0.509-0.592-1.351-0.762-2.131-0.803c-1.519-0.079-3.046,0.22-4.441,0.824
							c-3.372-0.213-6.891,0.883-6.618,2.17c0,0-2.22-0.049-4.358,2.246c-4.314,4.632-1.7,12.569,1.571,15.914
							c0.336,0.343,0.647,0.627,0.913,0.801c0.502-1.574-0.469-3.682,0.972-5.367c0.136-0.159,0.27-0.325,0.346-0.52
							c0.214-0.546-0.07-1.149-0.346-1.665c-0.303-0.565,1.129-0.135,1.617,0.28c0.801,0.682,0.595,1.477,0.692,2.221
							c0.033,0.253,0.365,0.323,0.493,0.102c0.262-0.453,0.601-1.802,1.255-2.652c0.537-0.698,1.046-1.31,1.427-2.095
							c0.628-0.219,1.167-0.709,1.394-1.337c0.369,0.774,1.117,1.379,1.967,1.487c0.85,0.109,1.768-0.329,2.143-1.1
							c0.451,0.919,1.391,1.579,2.408,1.69c1.017,0.111,2.078-0.33,2.717-1.13c0.649,0.178,1.33,0.285,1.995,0.18
							c0.664-0.105,1.313-0.445,1.68-1.009C291.572,277.623,291.6,276.824,291.18,276.299z"/>
						<g>
							<path style="fill:#DF9B99;" d="M273.272,282.108c-0.755-1.132-3.323-1.388-3.773,0.456c-0.606,2.483,1.784,4.353,3.938,4.04"
								/>
							
								<path style="fill:none;stroke:#000000;stroke-width:0.5;stroke-linecap:round;stroke-linejoin:round;stroke-miterlimit:10;" d="
								M270.606,285.784c0.778,0.639,1.83,0.965,2.831,0.82"/>
							<g>
								<g>
									<path d="M273.261,283.246c-0.617-0.433-1.332-0.693-2.079-0.785c-0.134-0.017-0.25,0.127-0.25,0.25
										c0,0.149,0.115,0.233,0.25,0.25c0.658,0.081,1.286,0.337,1.826,0.716c0.111,0.078,0.278,0.02,0.342-0.09
										C273.424,283.463,273.372,283.323,273.261,283.246L273.261,283.246z"/>
								</g>
							</g>
						</g>
						<path d="M284.605,283.148c-0.042,0.52,0.188,0.962,0.513,0.989c0.325,0.026,0.623-0.374,0.665-0.893
							c0.042-0.52-0.188-0.962-0.513-0.989C284.945,282.228,284.647,282.628,284.605,283.148z"/>
						<path d="M279.886,282.914c-0.043,0.531,0.21,0.984,0.565,1.013c0.355,0.029,0.678-0.378,0.721-0.909
							c0.043-0.531-0.21-0.984-0.565-1.013C280.251,281.976,279.929,282.383,279.886,282.914z"/>
						
							<path style="fill:none;stroke:#000000;stroke-width:0.5;stroke-linecap:round;stroke-linejoin:round;stroke-miterlimit:10;" d="
							M283.82,288.045c-0.643,0.788-3.024,0.418-3.177-0.941"/>
					</g>
					<path d="M275.393,290.16c1.906,1.104,3.139,1.44,4.148,1.677l-0.39,1.46L275.393,290.16z"/>
				</g>
				<g>
					
						<rect x="307.995" y="348.348" transform="matrix(0.0789 -0.9969 0.9969 0.0789 -72.2804 656.6974)" style="fill:#FFFFFF;" width="22.452" height="38.228"/>
					<path d="M337.179,380.144c-7.02-0.81-6.384-22.437,1.983-22.365l7.628,0.604l-1.771,22.382L337.179,380.144z"/>
					<path style="fill:#FFFFFF;" d="M344.418,358.205l4.126,0.326c4.752,0.376,2.982,22.748-1.771,22.372l-4.126-0.327
						C344.845,381.128,347.528,358.305,344.418,358.205z"/>
					
						<line style="fill:#FFFFFF;stroke:#000000;stroke-width:0.5;stroke-linecap:round;stroke-linejoin:round;stroke-miterlimit:10;" x1="324.258" y1="356.6" x2="322.487" y2="378.982"/>
					
						<line style="fill:#FFFFFF;stroke:#000000;stroke-width:0.5;stroke-linecap:round;stroke-linejoin:round;stroke-miterlimit:10;" x1="321.245" y1="356.361" x2="319.474" y2="378.743"/>
				</g>
				<g>
					
						<rect x="267.967" y="356.228" transform="matrix(0.9969 -0.0789 0.0789 0.9969 -28.0953 23.7946)" style="fill:#FFFFFF;" width="38.228" height="22.452"/>
					<path d="M269.124,380.136c7.02-0.81,6.384-22.437-1.983-22.365l-7.628,0.604l1.771,22.382L269.124,380.136z"/>
					<path style="fill:#FFFFFF;" d="M261.884,358.197l-4.125,0.327c-4.752,0.376-2.982,22.748,1.771,22.372l4.125-0.327
						C261.458,381.119,258.775,358.297,261.884,358.197z"/>
					
						<line style="fill:#FFFFFF;stroke:#000000;stroke-width:0.5;stroke-linecap:round;stroke-linejoin:round;stroke-miterlimit:10;" x1="282.044" y1="356.591" x2="283.816" y2="378.973"/>
					
						<line style="fill:#FFFFFF;stroke:#000000;stroke-width:0.5;stroke-linecap:round;stroke-linejoin:round;stroke-miterlimit:10;" x1="285.058" y1="356.353" x2="286.829" y2="378.734"/>
				</g>
				<path style="fill:#0C1591;" d="M320.205,381.417c0,0-39.652-1.546-64.431-7.646c-13.962-3.437-19.498-14.682-14.55-23.249
					c3.91-6.768,17.359-7.533,35.699-3.442c31.686,7.067,43.282,6.158,43.282,6.158c0.807,0,1.462,0.678,1.462,1.515v25.148
					C321.667,380.738,321.013,381.417,320.205,381.417z"/>
				<path style="fill:none;stroke:#000000;stroke-width:0.5;stroke-linecap:round;stroke-linejoin:round;stroke-miterlimit:10;" d="
					M255.438,293.603c0.992,0.623,3.649,4.875,4.818,11.253"/>
				
					<line style="fill:none;stroke:#000000;stroke-width:0.5;stroke-linecap:round;stroke-linejoin:round;stroke-miterlimit:10;" x1="300.645" y1="328.748" x2="291.488" y2="328.748"/>
				
					<line style="fill:none;stroke:#000000;stroke-width:0.5;stroke-linecap:round;stroke-linejoin:round;stroke-miterlimit:10;" x1="285.058" y1="329.206" x2="286.829" y2="348.559"/>
				<path style="fill:none;stroke:#000000;stroke-width:0.5;stroke-linecap:round;stroke-linejoin:round;stroke-miterlimit:10;" d="
					M241.833,349.615c7.166-9.554,35.539-2.47,35.539-2.47s8.143,1.751,17.834,3.376"/>
				<path style="fill:none;stroke:#000000;stroke-width:0.5;stroke-linecap:round;stroke-linejoin:round;stroke-miterlimit:10;" d="
					M243.016,366.355c5.191,5.583,6.971,7.465,33.16,11.166l44.029,3.895"/>
			</g>
			<g>
				<path style="fill:#F6C94C;" d="M351.669,352.776h-37.592c-0.583,0-1.056-0.473-1.056-1.056l0,0c0-0.583,0.473-1.056,1.056-1.056
					h37.592c0.583,0,1.056,0.473,1.056,1.056l0,0C352.726,352.303,352.253,352.776,351.669,352.776z"/>
				<path style="fill:#F6844F;" d="M317.511,352.776h-26.489c-0.583,0-1.056-0.473-1.056-1.056l0,0c0-0.583,0.473-1.056,1.056-1.056
					h26.489c0.583,0,1.056,0.473,1.056,1.056l0,0C318.567,352.303,318.094,352.776,317.511,352.776z"/>
				<g>
					<path style="fill:#F6C94C;" d="M352.226,349.816h-33.736c-0.5,0-0.852-0.491-0.691-0.965l10.682-31.499
						c0.1-0.296,0.379-0.496,0.691-0.496h33.736c0.5,0,0.852,0.491,0.691,0.965l-10.682,31.499
						C352.817,349.617,352.539,349.816,352.226,349.816z"/>
					<path style="opacity:0.52;fill:#F6C94C;" d="M363.46,318.235l0.14-0.413c0.16-0.474-0.191-0.965-0.691-0.965h-33.736
						c-0.313,0-0.591,0.199-0.691,0.496l-0.299,0.882H363.46z"/>
					<path style="fill:#F6844F;" d="M318.502,349.816L318.502,349.816c-0.506,0-0.862-0.497-0.699-0.975l10.676-31.482
						c0.102-0.3,0.383-0.501,0.699-0.501l0,0c0.506,0,0.862,0.497,0.699,0.975l-10.676,31.482
						C319.1,349.615,318.819,349.816,318.502,349.816z"/>
				</g>
				<path d="M350.788,350.664h-31.323c-0.234,0-0.424-0.19-0.424-0.423l0,0c0-0.234,0.19-0.424,0.424-0.424h31.323
					c0.234,0,0.424,0.19,0.424,0.424l0,0C351.211,350.474,351.022,350.664,350.788,350.664z"/>
				<path style="fill:#F7A461;" d="M346.887,332.919c-0.946,2.396-3.611,4.338-5.953,4.338s-3.472-1.942-2.526-4.338
					s3.611-4.338,5.953-4.338C346.702,328.581,347.833,330.523,346.887,332.919z"/>
			</g>
		</g>
		<g>
			<g>
				<g>
					<path style="fill:#254E00;" d="M140.186,257.819c-6.456,2.371-11.359,7.706-14.224,13.856
						c-3.408,7.315-4.354,15.478-5.033,23.434c-0.681,7.973-0.817,15.992-0.417,23.983c0.405,8.091,1.358,16.159,2.835,24.124
						c1.459,7.867,3.447,15.637,5.954,23.236c0.316,0.959,0.642,1.915,0.974,2.869c0.277,0.795,1.067,1.323,1.918,1.089
						c0.772-0.212,1.367-1.119,1.089-1.918c-2.583-7.41-4.676-14.988-6.258-22.674c-1.57-7.627-2.632-15.352-3.178-23.12
						c-0.547-7.788-0.586-15.612-0.107-23.405c0.467-7.601,1.109-15.469,3.59-22.718c2.089-6.103,5.916-11.843,11.706-14.87
						c0.683-0.357,1.288-0.625,1.98-0.879c0.79-0.29,1.325-1.058,1.089-1.918C141.894,258.147,140.98,257.527,140.186,257.819
						L140.186,257.819z"/>
				</g>
				<g>
					<path style="fill:#254E00;" d="M142.487,291.732c-6.236,8.454-10.261,18.344-11.996,28.69
						c-1.766,10.531-1.404,21.263-0.125,31.826c0.728,6.011,1.731,11.983,2.833,17.936c0.153,0.828,1.156,1.298,1.918,1.089
						c0.87-0.239,1.243-1.087,1.089-1.918c-1.895-10.233-3.527-20.556-3.781-30.979c-0.25-10.259,0.911-20.589,4.586-30.225
						c2.018-5.293,4.808-10.288,8.169-14.844c0.5-0.678,0.113-1.74-0.559-2.133C143.828,290.709,142.989,291.052,142.487,291.732
						L142.487,291.732z"/>
				</g>
				<g>
					<path style="fill:#254E00;" d="M103.581,281.384c5.305,1.178,8.965,5.559,11.721,10.126c1.598,2.648,2.969,5.434,4.301,8.223
						c1.441,3.019,2.792,6.082,4.039,9.186c5.078,12.637,8.597,25.899,10.463,39.39c1.048,7.579,1.532,15.242,1.505,22.893
						c-0.007,2.007,3.111,2.009,3.118,0c0.05-14.057-1.689-28.13-5.131-41.759c-1.704-6.749-3.83-13.392-6.363-19.875
						c-2.464-6.307-5.213-12.609-8.574-18.496c-3.186-5.582-7.654-11.229-14.251-12.694c-0.821-0.182-1.687,0.249-1.918,1.089
						C102.277,280.247,102.755,281.2,103.581,281.384L103.581,281.384z"/>
				</g>
				<path style="fill:#386B17;" d="M86.529,261.238c-5.316-0.41-10.99,0.81-14.89,4.444c-3.932,3.663-5.572,9.23-9.281,13.118
					c-3.856,4.042-9.451,5.8-14.339,8.504c-4.889,2.704-9.593,7.385-9.089,12.949c11.446,6.878,26.373,7.567,38.404,1.772
					c-0.453,5.422,4.772,9.975,10.15,10.8c5.378,0.824,10.761-1.064,15.875-2.923c5.733-2.084,11.839-4.447,15.291-9.477
					c2.629-3.83,3.29-8.938,1.725-13.311c-1.707-4.766-5.693-8.291-9.526-11.598C102.636,268.431,98.17,262.12,86.529,261.238z"/>
				<path style="fill:#5C8E3F;" d="M130.972,306.751c0.056,2.923,1.285,5.706,2.825,8.191c4.164,6.718,10.823,11.849,18.381,14.163
					c6.225,1.906,12.848,1.929,19.358,1.936c5.962,0.006,11.923,0.013,17.885,0.019c3.632,0.004,8.315-0.807,8.983-4.376
					c0.692-3.699-3.628-6.083-6.004-9.001c-3.097-3.804-2.962-9.189-4.108-13.959c-2.052-8.543-8.941-15.748-17.383-18.182
					C160.387,282.508,130.711,293.023,130.972,306.751z"/>
				<path style="fill:#7ABF58;" d="M149.936,247.604c4.944,1.045,9.483,3.437,13.949,5.801c3.492,1.849,6.985,3.698,10.477,5.547
					c3.029,1.604,6.434,3.741,6.761,7.153c0.26,2.71-1.687,5.246-4.091,6.525c-2.404,1.279-5.194,1.565-7.904,1.827
					c-9.904,0.959-19.807,1.918-29.711,2.876C116.645,279.538,128.127,242.994,149.936,247.604z"/>
				<g>
					<g>
						<path d="M129.411,259.058c2.936-1.476,6.553-1.293,9.756-1.314c3.493-0.023,6.99,0.152,10.459,0.565
							c6.809,0.81,13.289,2.77,19.591,5.436c3.741,1.582,7.48,3.168,11.22,4.753c0.293,0.124,0.548-0.306,0.252-0.432
							c-3.435-1.455-6.869-2.91-10.304-4.365c-3.129-1.325-6.279-2.583-9.533-3.572c-6.781-2.061-13.88-2.878-20.954-2.887
							c-1.895-0.003-3.801,0.028-5.692,0.162c-1.749,0.124-3.469,0.429-5.048,1.223
							C128.871,258.771,129.124,259.203,129.411,259.058L129.411,259.058z"/>
					</g>
				</g>
				<g>
					<g>
						<path d="M147.54,289.665c4.289,0.712,8.103,2.936,11.513,5.548c3.19,2.443,6.116,5.217,8.926,8.083
							c5.533,5.643,10.63,11.73,16.568,16.967c3.258,2.873,6.771,5.463,10.62,7.491c0.284,0.15,0.537-0.282,0.252-0.432
							c-7.072-3.726-12.864-9.309-18.311-15.068c-5.458-5.77-10.689-11.825-16.925-16.788c-3.676-2.926-7.805-5.502-12.51-6.283
							C147.358,289.13,147.223,289.612,147.54,289.665L147.54,289.665z"/>
					</g>
				</g>
				<g>
					<g>
						<path d="M110.736,275.285c-4.377-1.497-9.084-0.252-13.365,0.98c-4.382,1.261-8.667,2.836-12.883,4.565
							c-8.419,3.453-16.569,7.517-24.947,11.064c-4.764,2.017-9.607,3.857-14.574,5.314c-0.308,0.09-0.177,0.573,0.133,0.482
							c8.624-2.53,16.837-6.217,24.994-9.946c8.215-3.755,16.437-7.576,25.068-10.292c4.835-1.521,10.423-3.403,15.442-1.686
							C110.908,275.872,111.039,275.389,110.736,275.285L110.736,275.285z"/>
					</g>
				</g>
			</g>
			<path style="fill:#F09451;" d="M151.448,436.066h-41.232c-3.232,0-6.056-2.64-6.313-5.954l-6.323-81.769
				c-0.399-5.162,2.634-9.439,6.784-9.439h52.936c4.15,0,7.183,4.277,6.783,9.439l-6.323,81.769
				C157.505,433.426,154.68,436.066,151.448,436.066z"/>
			<path style="fill:none;stroke:#000000;stroke-width:0.5;stroke-linecap:round;stroke-linejoin:round;stroke-miterlimit:10;" d="
				M103.377,423.191h54.919 M102.863,416.642h55.962"/>
			<path style="fill:#6FB44F;" d="M87.933,316.693c-5.912,4.296-8.542,11.804-9.734,19.014c-1.963,11.877-0.893,24.243,3.081,35.606
				c15.246-1.923,29.907-8.278,41.733-18.091c5.468-4.538,10.626-10.433,11.019-17.528
				C135.093,316.474,100.711,307.408,87.933,316.693z"/>
			<g>
				<g>
					<path d="M118.387,316.488c-7.019,1.665-12.057,7.461-15.307,13.596c-1.93,3.643-3.386,7.509-4.914,11.331
						c-1.583,3.96-3.323,7.851-5.267,11.648c-2.172,4.242-4.577,8.361-7.194,12.343c-0.177,0.27,0.256,0.521,0.432,0.252
						c4.523-6.883,8.401-14.181,11.565-21.785c2.994-7.197,5.409-14.968,10.843-20.784c2.709-2.899,6.08-5.195,9.975-6.119
						C118.833,316.896,118.7,316.414,118.387,316.488L118.387,316.488z"/>
				</g>
			</g>
		</g>
	</g>
	<g>
		<path style="fill:#608EE5;" d="M388.475,102.917c0.974-1.64,1.515-3.437,1.515-5.323c0-7.673-8.904-13.892-19.887-13.892
			c-3.703,0-7.167,0.709-10.135,1.94c-0.477-8.276-10.227-14.884-22.191-14.884c-12.269,0-22.214,6.948-22.214,15.518
			c0,0.069,0.006,0.137,0.008,0.206c-1.051-0.133-2.133-0.206-3.239-0.206c-9.965,0-18.044,5.643-18.044,12.605
			c0,1.733,0.501,3.384,1.407,4.888c-7.432-1.478-14.394,0.951-19.354,7.717h35.99h57.772h52.76
			C415.124,104.81,407.61,97.902,388.475,102.917z"/>
		<path style="fill:#608EE5;" d="M373.092,166.237h77.777c0,0,0.359-14.421-15.802-11.949c-6.105-11.533-32.323-21.446-45.97,3.622
			L373.092,166.237z"/>
	</g>
	<g>
		<g>
			<path style="fill:#93BFF2;" d="M183.673,50.666c-3.085,0.887-3.804,1.606-4.691,4.691c-0.887-3.085-1.606-3.804-4.691-4.691
				c3.085-0.887,3.804-1.605,4.691-4.691C179.869,49.061,180.588,49.779,183.673,50.666z"/>
		</g>
		<g>
			<path style="fill:#93BFF2;" d="M318.966,458.892c-3.085,0.887-3.804,1.606-4.691,4.691c-0.887-3.085-1.606-3.804-4.691-4.691
				c3.085-0.887,3.804-1.605,4.691-4.691C315.161,457.287,315.88,458.006,318.966,458.892z"/>
		</g>
		<g>
			<path style="fill:#93BFF2;" d="M440.068,318.235c-3.085,0.887-3.804,1.606-4.691,4.691c-0.887-3.085-1.606-3.804-4.691-4.691
				c3.085-0.887,3.804-1.605,4.691-4.691C436.264,316.629,436.983,317.348,440.068,318.235z"/>
		</g>
		<g>
			<path style="fill:#93BFF2;" d="M388.562,44.612c-2.403,0.691-2.962,1.25-3.653,3.653c-0.691-2.403-1.251-2.963-3.653-3.653
				c2.403-0.691,2.963-1.25,3.653-3.653C385.599,43.362,386.159,43.921,388.562,44.612z"/>
		</g>
		<g>
			<path style="fill:#93BFF2;" d="M58.381,217.429c-4.949,1.422-6.102,2.575-7.524,7.524c-1.422-4.949-2.576-6.102-7.524-7.524
				c4.949-1.422,6.102-2.575,7.524-7.524C52.279,214.854,53.432,216.007,58.381,217.429z"/>
		</g>
		<g>
			<path style="fill:#93BFF2;" d="M248.816,106.437c-4.949,1.422-6.102,2.576-7.524,7.525c-1.422-4.949-2.575-6.102-7.524-7.525
				c4.949-1.422,6.102-2.575,7.524-7.524C242.714,103.862,243.867,105.015,248.816,106.437z"/>
		</g>
		<g>
			<path style="fill:#93BFF2;" d="M383.201,297.72c-6.856,1.971-8.453,3.568-10.424,10.424c-1.971-6.856-3.568-8.454-10.424-10.424
				c6.856-1.97,8.454-3.568,10.424-10.424C374.748,294.152,376.345,295.75,383.201,297.72z"/>
		</g>
		
			<path style="fill:none;stroke:#93BFF2;stroke-width:1.9622;stroke-linecap:round;stroke-linejoin:round;stroke-miterlimit:10;" d="
			M131.206,451.59l-2.526,2.526 M126.43,456.367l-2.526,2.525 M131.206,458.892l-2.526-2.525 M126.43,454.116l-2.526-2.526"/>
		
			<path style="fill:none;stroke:#93BFF2;stroke-width:2.7988;stroke-linecap:round;stroke-linejoin:round;stroke-miterlimit:10;" d="
			M109.946,85.915l-3.603,3.602 M103.133,92.728l-3.603,3.602 M109.946,96.33l-3.603-3.602 M103.133,89.517l-3.603-3.602"/>
		
			<path style="fill:none;stroke:#93BFF2;stroke-width:1.0127;stroke-linecap:round;stroke-linejoin:round;stroke-miterlimit:10;" d="
			M446.895,83.76l1.303-1.303 M449.36,81.295l1.303-1.303 M446.895,79.992l1.303,1.303 M449.36,82.457l1.303,1.303"/>
		<path style="fill:none;stroke:#93BFF2;stroke-width:3.572;stroke-linecap:round;stroke-linejoin:round;stroke-miterlimit:10;" d="
			M454.193,229.938l-4.597,4.598 M445.498,238.633l-4.598,4.597 M454.193,243.23l-4.597-4.597 M445.498,234.535l-4.598-4.598"/>
	</g>
</g>
</svg>
