<?xml version="1.0" standalone="no"?>
<!DOCTYPE svg PUBLIC "-//W3C//DTD SVG 20010904//EN"
 "http://www.w3.org/TR/2001/REC-SVG-20010904/DTD/svg10.dtd">
<svg version="1.0" xmlns="http://www.w3.org/2000/svg"
 width="360.000000pt" height="360.000000pt" viewBox="0 0 360.000000 360.000000"
 preserveAspectRatio="xMidYMid meet">
<metadata>
Created by potrace 1.16, written by Peter Selinger 2001-2019
</metadata>
<g transform="translate(0.000000,360.000000) scale(0.100000,-0.100000)"
fill="#000000" stroke="none">
<path d="M1698 2403 c-10 -17 -123 -712 -117 -718 4 -3 38 -9 76 -12 l69 -6
57 339 c32 187 57 349 57 360 0 23 -10 28 -91 39 -26 4 -49 3 -51 -2z"/>
<path d="M1858 2034 c-2 -201 -2 -366 -1 -367 1 -1 32 -1 70 1 l69 3 4 32 c2
18 3 52 3 77 -4 256 -3 472 2 480 3 5 3 39 -1 75 l-7 65 -68 0 -69 0 -2 -366z"/>
<path d="M1410 1580 l0 -80 -161 0 c-141 0 -164 2 -187 19 -74 52 -283 134
-299 117 -5 -4 -8 -103 -8 -219 0 -189 3 -221 23 -297 32 -122 101 -256 166
-325 29 -31 48 -59 42 -61 -6 -2 -126 -5 -266 -7 -140 -1 368 -2 1130 -3 762
0 1336 2 1277 3 -98 3 -108 5 -102 21 4 9 11 35 14 57 11 60 26 80 89 119 81
49 95 67 100 130 3 40 -1 65 -17 101 -27 62 -27 95 4 155 14 27 25 62 25 78 0
36 -30 75 -70 92 -36 15 -165 9 -217 -10 -32 -12 -33 -13 -33 -73 -1 -235 -79
-468 -202 -601 l-60 -66 -72 0 -73 0 5 99 c2 55 2 111 -2 125 l-6 26 -465 0
c-303 0 -465 3 -465 10 0 7 190 10 550 10 l550 0 0 23 c-1 20 -2 20 -11 5 -5
-10 -15 -18 -20 -18 -6 0 -7 6 -3 13 6 9 4 9 -7 1 -9 -7 -188 -11 -534 -12
-576 -3 -533 -8 -534 61 -1 24 -5 27 -35 27 -32 0 -34 -2 -40 -44 l-7 -44 -85
0 c-100 1 -96 -3 -92 128 l3 85 442 3 442 2 -1 -27 c-1 -60 1 -66 17 -53 13
10 19 10 35 -5 20 -18 20 -17 20 33 l0 52 109 0 c142 0 141 -1 141 135 0 81
-3 107 -16 119 -13 13 -42 16 -165 16 l-149 0 0 80 0 80 -30 0 -30 0 0 -80 0
-80 -330 0 -330 0 0 80 0 80 -30 0 -30 0 0 -80z m964 -176 c19 -18 21 -65 4
-82 -17 -17 -108 -16 -108 2 0 8 -14 15 -35 18 -29 3 -35 1 -35 -14 0 -17 -26
-18 -515 -18 l-515 0 0 55 0 55 594 0 c527 0 596 -2 610 -16z m-874 -511 c0
-16 1 -16 17 0 16 15 18 15 35 0 17 -15 18 -15 18 0 0 16 35 17 411 17 l410 0
-3 -52 -3 -53 -612 -3 -613 -2 0 55 0 55 170 0 c154 0 170 -2 170 -17z"/>
</g>
</svg>
